<svg width="796" height="388" viewBox="0 0 796 388" fill="none" xmlns="http://www.w3.org/2000/svg">
<g id="box-figma">
<g id="cursor">
<rect id="Rectangle 7" x="605.998" y="351.999" width="138" height="26" fill="#5F7AD8"/>
<g id="Group 2">
<path id="Vector 1" d="M607.997 346.633L593.997 338L597.261 354L601.033 348.121L607.997 346.633Z" fill="#5F7AD8" stroke="white"/>
<path id="Jordane Garcia" d="M614.744 369.744C614.475 369.598 614.393 369.407 614.498 369.173L614.788 368.549C614.917 368.268 615.131 368.227 615.43 368.426C615.904 368.736 616.379 368.892 616.854 368.892C617.422 368.892 617.791 368.701 617.961 368.32C618.131 367.934 618.216 367.386 618.216 366.677V357.879C618.216 357.557 618.362 357.396 618.655 357.396H619.464C619.757 357.396 619.903 357.557 619.903 357.879V366.475C619.903 367.635 619.722 368.558 619.358 369.243C618.995 369.923 618.146 370.263 616.81 370.263C616.077 370.263 615.389 370.09 614.744 369.744ZM621.986 365.385C621.986 364.008 622.35 362.871 623.076 361.975C623.809 361.072 624.878 360.621 626.284 360.621C627.69 360.621 628.757 361.072 629.483 361.975C630.216 362.871 630.582 364.008 630.582 365.385C630.582 366.762 630.216 367.901 629.483 368.804C628.757 369.7 627.69 370.148 626.284 370.148C624.878 370.148 623.809 369.7 623.076 368.804C622.35 367.901 621.986 366.762 621.986 365.385ZM623.621 365.385C623.621 366.615 623.864 367.526 624.351 368.118C624.837 368.71 625.481 369.006 626.284 369.006C627.087 369.006 627.731 368.71 628.218 368.118C628.704 367.526 628.947 366.615 628.947 365.385C628.947 364.154 628.704 363.243 628.218 362.651C627.731 362.06 627.087 361.764 626.284 361.764C625.481 361.764 624.837 362.06 624.351 362.651C623.864 363.243 623.621 364.154 623.621 365.385ZM632.973 369.999C632.709 369.999 632.577 369.867 632.577 369.604V361.166C632.577 360.902 632.709 360.771 632.973 360.771H633.711C633.975 360.771 634.106 360.902 634.106 361.166V362.221H634.142C634.423 361.693 634.754 361.295 635.135 361.025C635.516 360.756 635.99 360.621 636.559 360.621C636.934 360.621 637.197 360.653 637.35 360.718C637.484 360.771 637.534 360.858 637.499 360.981L637.297 361.702C637.268 361.808 637.191 361.849 637.068 361.825C636.863 361.784 636.67 361.764 636.488 361.764C635.803 361.764 635.237 362.074 634.792 362.695C634.347 363.311 634.124 364.151 634.124 365.218V369.604C634.124 369.867 633.992 369.999 633.729 369.999H632.973ZM638.422 365.385C638.422 364.125 638.727 363.018 639.336 362.062C639.945 361.102 640.836 360.621 642.008 360.621C642.682 360.621 643.221 360.732 643.625 360.955C644.029 361.178 644.393 361.482 644.715 361.869H644.732C644.721 361.693 644.715 361.515 644.715 361.333V357.422C644.715 357.158 644.847 357.026 645.11 357.026H645.866C646.13 357.026 646.262 357.158 646.262 357.422V369.604C646.262 369.867 646.13 369.999 645.866 369.999H645.128C644.917 369.999 644.803 369.867 644.785 369.604L644.732 368.9H644.715C644.393 369.287 644.029 369.592 643.625 369.814C643.221 370.037 642.682 370.148 642.008 370.148C640.836 370.148 639.945 369.671 639.336 368.716C638.727 367.755 638.422 366.645 638.422 365.385ZM640.057 365.385C640.057 366.463 640.241 367.336 640.61 368.004C640.985 368.672 641.618 369.006 642.509 369.006C643.142 369.006 643.666 368.792 644.082 368.364C644.504 367.931 644.715 367.274 644.715 366.396V364.374C644.715 363.495 644.504 362.842 644.082 362.414C643.666 361.98 643.142 361.764 642.509 361.764C641.618 361.764 640.985 362.098 640.61 362.766C640.241 363.434 640.057 364.307 640.057 365.385ZM648.266 367.538C648.266 366.495 648.752 365.73 649.725 365.244C650.703 364.758 652.162 364.474 654.102 364.392V363.794C654.102 363.243 653.976 362.769 653.724 362.37C653.478 361.966 652.985 361.764 652.247 361.764C651.778 361.764 651.403 361.811 651.122 361.904C650.841 361.992 650.583 362.112 650.349 362.265C650.12 362.411 649.9 362.602 649.689 362.836C649.531 363.012 649.382 363.021 649.241 362.862L648.784 362.335C648.655 362.188 648.699 362.013 648.916 361.808C649.227 361.515 649.528 361.295 649.821 361.148C650.114 361.002 650.478 360.879 650.911 360.779C651.351 360.674 651.796 360.621 652.247 360.621C653.472 360.621 654.345 360.938 654.866 361.57C655.388 362.197 655.648 363.059 655.648 364.154V369.604C655.648 369.867 655.517 369.999 655.253 369.999H654.462C654.233 369.999 654.119 369.867 654.119 369.604V369.173H654.102C653.639 369.536 653.185 369.791 652.739 369.938C652.3 370.078 651.808 370.148 651.263 370.148C650.302 370.148 649.561 369.92 649.039 369.463C648.523 369 648.266 368.358 648.266 367.538ZM649.865 367.573C649.865 367.937 649.941 368.229 650.094 368.452C650.246 368.669 650.457 368.81 650.727 368.874C650.996 368.933 651.277 368.962 651.57 368.962C652.021 368.962 652.449 368.918 652.854 368.83C653.258 368.742 653.674 368.511 654.102 368.136V365.543C652.918 365.631 652.074 365.739 651.57 365.868C651.066 365.991 650.656 366.208 650.34 366.519C650.023 366.823 649.865 367.175 649.865 367.573ZM658.549 369.999C658.285 369.999 658.153 369.867 658.153 369.604V361.166C658.153 360.902 658.285 360.771 658.549 360.771H659.287C659.551 360.771 659.683 360.902 659.683 361.166V361.869H659.718C660.099 361.447 660.509 361.134 660.948 360.929C661.388 360.724 661.936 360.621 662.592 360.621C663.658 360.621 664.423 360.923 664.886 361.526C665.354 362.124 665.589 362.944 665.589 363.987V369.604C665.589 369.867 665.457 369.999 665.193 369.999H664.438C664.174 369.999 664.042 369.867 664.042 369.604V364.409C664.042 363.261 663.852 362.534 663.471 362.229C663.09 361.919 662.606 361.764 662.021 361.764C661.259 361.764 660.682 361.992 660.289 362.449C659.896 362.9 659.7 363.677 659.7 364.778V369.604C659.7 369.867 659.568 369.999 659.305 369.999H658.549ZM667.566 365.385C667.566 363.932 667.93 362.774 668.656 361.913C669.383 361.052 670.423 360.621 671.776 360.621C672.901 360.621 673.833 361.017 674.571 361.808C675.315 362.593 675.688 363.85 675.688 365.578C675.688 365.842 675.567 365.974 675.327 365.974H669.201C669.301 367.104 669.605 367.893 670.115 368.338C670.625 368.777 671.202 368.997 671.847 368.997C672.526 368.997 673.048 368.883 673.411 368.654C673.774 368.426 674.041 368.2 674.211 367.978C674.398 367.731 674.58 367.685 674.756 367.837L675.274 368.285C675.409 368.402 675.409 368.563 675.274 368.769C675.163 368.938 674.844 369.211 674.316 369.586C673.795 369.961 672.972 370.148 671.847 370.148C670.382 370.148 669.301 369.718 668.604 368.856C667.912 367.995 667.566 366.838 667.566 365.385ZM669.166 364.831H674.132C674.108 364.011 673.897 363.293 673.499 362.678C673.101 362.057 672.515 361.746 671.741 361.746C671.062 361.746 670.484 361.975 670.01 362.432C669.535 362.883 669.254 363.683 669.166 364.831ZM683.272 363.697C683.272 361.646 683.803 360.041 684.863 358.881C685.924 357.715 687.397 357.132 689.284 357.132C690.415 357.132 691.338 357.328 692.053 357.721C692.768 358.107 693.292 358.564 693.626 359.092C693.831 359.42 693.828 359.657 693.617 359.804L692.958 360.261C692.741 360.413 692.524 360.322 692.308 359.988C692.132 359.725 691.801 359.411 691.314 359.048C690.828 358.685 690.181 358.503 689.372 358.503C687.937 358.503 686.861 358.96 686.146 359.874C685.432 360.782 685.074 362.057 685.074 363.697C685.074 365.338 685.423 366.615 686.12 367.529C686.817 368.438 687.931 368.892 689.46 368.892C690.222 368.892 690.884 368.801 691.446 368.619C692.015 368.432 692.413 368.174 692.642 367.846V365.517H690.031C689.709 365.517 689.548 365.385 689.548 365.121V364.471C689.548 364.207 689.709 364.075 690.031 364.075H693.846C694.168 364.075 694.329 364.207 694.329 364.471V368.619C693.614 369.141 692.899 369.545 692.185 369.832C691.47 370.119 690.532 370.263 689.372 370.263C687.438 370.263 685.938 369.683 684.872 368.522C683.806 367.356 683.272 365.748 683.272 363.697ZM696.131 367.538C696.131 366.495 696.617 365.73 697.59 365.244C698.568 364.758 700.027 364.474 701.967 364.392V363.794C701.967 363.243 701.841 362.769 701.589 362.37C701.343 361.966 700.851 361.764 700.112 361.764C699.644 361.764 699.269 361.811 698.987 361.904C698.706 361.992 698.448 362.112 698.214 362.265C697.985 362.411 697.766 362.602 697.555 362.836C697.396 363.012 697.247 363.021 697.106 362.862L696.649 362.335C696.521 362.188 696.564 362.013 696.781 361.808C697.092 361.515 697.394 361.295 697.687 361.148C697.979 361.002 698.343 360.879 698.776 360.779C699.216 360.674 699.661 360.621 700.112 360.621C701.337 360.621 702.21 360.938 702.731 361.57C703.253 362.197 703.514 363.059 703.514 364.154V369.604C703.514 369.867 703.382 369.999 703.118 369.999H702.327C702.099 369.999 701.984 369.867 701.984 369.604V369.173H701.967C701.504 369.536 701.05 369.791 700.604 369.938C700.165 370.078 699.673 370.148 699.128 370.148C698.167 370.148 697.426 369.92 696.904 369.463C696.389 369 696.131 368.358 696.131 367.538ZM697.73 367.573C697.73 367.937 697.807 368.229 697.959 368.452C698.111 368.669 698.322 368.81 698.592 368.874C698.861 368.933 699.143 368.962 699.436 368.962C699.887 368.962 700.314 368.918 700.719 368.83C701.123 368.742 701.539 368.511 701.967 368.136V365.543C700.783 365.631 699.939 365.739 699.436 365.868C698.932 365.991 698.521 366.208 698.205 366.519C697.889 366.823 697.73 367.175 697.73 367.573ZM706.414 369.999C706.15 369.999 706.019 369.867 706.019 369.604V361.166C706.019 360.902 706.15 360.771 706.414 360.771H707.152C707.416 360.771 707.548 360.902 707.548 361.166V362.221H707.583C707.864 361.693 708.195 361.295 708.576 361.025C708.957 360.756 709.432 360.621 710 360.621C710.375 360.621 710.639 360.653 710.791 360.718C710.926 360.771 710.976 360.858 710.94 360.981L710.738 361.702C710.709 361.808 710.633 361.849 710.51 361.825C710.305 361.784 710.111 361.764 709.93 361.764C709.244 361.764 708.679 362.074 708.233 362.695C707.788 363.311 707.565 364.151 707.565 365.218V369.604C707.565 369.867 707.434 369.999 707.17 369.999H706.414ZM711.863 365.385C711.863 364.008 712.203 362.871 712.883 361.975C713.568 361.072 714.614 360.621 716.021 360.621C716.97 360.621 717.693 360.791 718.191 361.131C718.695 361.465 719.059 361.808 719.281 362.159C719.404 362.353 719.378 362.508 719.202 362.625L718.648 362.985C718.473 363.108 718.297 363.029 718.121 362.748C717.951 362.479 717.711 362.247 717.4 362.054C717.096 361.86 716.636 361.764 716.021 361.764C715.218 361.764 714.597 362.06 714.157 362.651C713.718 363.243 713.498 364.154 713.498 365.385C713.498 366.615 713.718 367.526 714.157 368.118C714.597 368.71 715.218 369.006 716.021 369.006C716.671 369.006 717.169 368.883 717.515 368.637C717.86 368.385 718.112 368.112 718.271 367.819C718.423 367.544 718.596 367.465 718.789 367.582L719.378 367.934C719.554 368.039 719.58 368.197 719.457 368.408C719.311 368.66 718.977 369.015 718.455 369.472C717.939 369.923 717.128 370.148 716.021 370.148C714.614 370.148 713.568 369.7 712.883 368.804C712.203 367.901 711.863 366.762 711.863 365.385ZM721.777 369.999C721.514 369.999 721.382 369.867 721.382 369.604V361.166C721.382 360.902 721.514 360.771 721.777 360.771H722.533C722.797 360.771 722.929 360.902 722.929 361.166V369.604C722.929 369.867 722.797 369.999 722.533 369.999H721.777ZM721.777 359.101C721.514 359.101 721.382 358.969 721.382 358.705V357.949C721.382 357.686 721.514 357.554 721.777 357.554H722.533C722.797 357.554 722.929 357.686 722.929 357.949V358.705C722.929 358.969 722.797 359.101 722.533 359.101H721.777ZM724.924 367.538C724.924 366.495 725.41 365.73 726.383 365.244C727.361 364.758 728.82 364.474 730.76 364.392V363.794C730.76 363.243 730.634 362.769 730.382 362.37C730.136 361.966 729.644 361.764 728.905 361.764C728.437 361.764 728.062 361.811 727.78 361.904C727.499 361.992 727.241 362.112 727.007 362.265C726.778 362.411 726.559 362.602 726.348 362.836C726.189 363.012 726.04 363.021 725.899 362.862L725.442 362.335C725.313 362.188 725.357 362.013 725.574 361.808C725.885 361.515 726.187 361.295 726.479 361.148C726.772 361.002 727.136 360.879 727.569 360.779C728.009 360.674 728.454 360.621 728.905 360.621C730.13 360.621 731.003 360.938 731.524 361.57C732.046 362.197 732.307 363.059 732.307 364.154V369.604C732.307 369.867 732.175 369.999 731.911 369.999H731.12C730.892 369.999 730.777 369.867 730.777 369.604V369.173H730.76C730.297 369.536 729.843 369.791 729.397 369.938C728.958 370.078 728.466 370.148 727.921 370.148C726.96 370.148 726.219 369.92 725.697 369.463C725.182 369 724.924 368.358 724.924 367.538ZM726.523 367.573C726.523 367.937 726.6 368.229 726.752 368.452C726.904 368.669 727.115 368.81 727.385 368.874C727.654 368.933 727.936 368.962 728.229 368.962C728.68 368.962 729.107 368.918 729.512 368.83C729.916 368.742 730.332 368.511 730.76 368.136V365.543C729.576 365.631 728.732 365.739 728.229 365.868C727.725 365.991 727.314 366.208 726.998 366.519C726.682 366.823 726.523 367.175 726.523 367.573Z" fill="white"/>
</g>
</g>
<g id="box">
<rect id="Rectangle 6" x="133.499" y="57.499" width="531" height="273" fill="#5F7AD8" fill-opacity="0.1" stroke="#5F7AD8" stroke-width="3" stroke-linejoin="bevel" stroke-dasharray="6 6"/>
<g id="Group 4">
<rect id="Rectangle 8" x="130.999" y="54.999" width="6" height="6" fill="#5F7AD8" fill-opacity="0.1" stroke="white" stroke-width="2"/>
<rect id="Rectangle 9" x="660.999" y="54.999" width="6" height="6" fill="#5F7AD8" fill-opacity="0.1" stroke="white" stroke-width="2"/>
<rect id="Rectangle 10" x="660.999" y="326.999" width="6" height="6" fill="#5F7AD8" fill-opacity="0.1" stroke="white" stroke-width="2"/>
<rect id="Rectangle 11" x="130.999" y="326.999" width="6" height="6" fill="#5F7AD8" fill-opacity="0.1" stroke="white" stroke-width="2"/>
</g>
</g>
<path id="text" d="M149.312 108.905V82.9053C149.312 81.7594 149.833 81.1865 150.875 81.1865H153.75C154.792 81.1865 155.312 81.7594 155.312 82.9053V107.968C155.312 113.801 156.135 117.614 157.781 119.405C159.448 121.176 162.156 122.062 165.906 122.062C169.656 122.062 172.354 121.176 174 119.405C175.667 117.614 176.5 113.801 176.5 107.968V82.9053C176.5 81.7594 177.021 81.1865 178.062 81.1865H180.938C181.979 81.1865 182.5 81.7594 182.5 82.9053V108.905C182.5 115.509 180.979 120.166 177.938 122.874C174.917 125.582 170.906 126.937 165.906 126.937C160.906 126.937 156.885 125.582 153.844 122.874C150.823 120.166 149.312 115.509 149.312 108.905ZM193.656 125.999C192.719 125.999 192.25 125.53 192.25 124.593V94.5928C192.25 93.6553 192.719 93.1865 193.656 93.1865H196.344C197.281 93.1865 197.75 93.6553 197.75 94.5928V124.593C197.75 125.53 197.281 125.999 196.344 125.999H193.656ZM193.656 87.249C192.719 87.249 192.25 86.7803 192.25 85.8428V83.1553C192.25 82.2178 192.719 81.749 193.656 81.749H196.344C197.281 81.749 197.75 82.2178 197.75 83.1553V85.8428C197.75 86.7803 197.281 87.249 196.344 87.249H193.656ZM230.375 125.999C229.333 125.999 228.812 125.426 228.812 124.28V82.9053C228.812 81.7594 229.333 81.1865 230.375 81.1865H241.906C250.74 81.1865 256.875 83.1449 260.312 87.0615C263.771 90.9574 265.5 96.4469 265.5 103.53C265.5 110.614 263.771 116.134 260.312 120.093C256.875 124.03 250.74 125.999 241.906 125.999H230.375ZM234.812 120.874H241.625C248.5 120.874 253.125 119.416 255.5 116.499C257.896 113.582 259.094 109.259 259.094 103.53C259.094 97.8011 257.896 93.4886 255.5 90.5928C253.125 87.6969 248.5 86.249 241.625 86.249H234.812V120.874ZM271.031 109.593C271.031 104.426 272.323 100.312 274.906 97.249C277.49 94.1865 281.188 92.6553 286 92.6553C290 92.6553 293.312 94.0615 295.938 96.874C298.583 99.6657 299.906 104.134 299.906 110.28C299.906 111.218 299.479 111.687 298.625 111.687H276.844C277.198 115.707 278.281 118.509 280.094 120.093C281.906 121.655 283.958 122.437 286.25 122.437C288.667 122.437 290.521 122.03 291.812 121.218C293.104 120.405 294.052 119.603 294.656 118.812C295.323 117.937 295.969 117.77 296.594 118.312L298.438 119.905C298.917 120.322 298.917 120.895 298.438 121.624C298.042 122.228 296.906 123.197 295.031 124.53C293.177 125.864 290.25 126.53 286.25 126.53C281.042 126.53 277.198 124.999 274.719 121.937C272.26 118.874 271.031 114.759 271.031 109.593ZM276.719 107.624H294.375C294.292 104.707 293.542 102.155 292.125 99.9678C290.708 97.7594 288.625 96.6553 285.875 96.6553C283.458 96.6553 281.406 97.4678 279.719 99.0928C278.031 100.697 277.031 103.541 276.719 107.624ZM305.844 122.937C305.198 122.332 305.062 121.77 305.438 121.249L306.844 119.28C307.302 118.655 307.979 118.687 308.875 119.374C310.104 120.312 311.469 121.062 312.969 121.624C314.49 122.187 316.219 122.468 318.156 122.468C319.302 122.468 320.323 122.332 321.219 122.062C322.115 121.77 322.896 121.239 323.562 120.468C324.25 119.697 324.594 118.666 324.594 117.374C324.594 116.624 324.427 115.916 324.094 115.249C323.781 114.582 323.281 114.051 322.594 113.655C321.927 113.239 321.271 112.916 320.625 112.687C319.562 112.291 318.5 111.968 317.438 111.718C316.396 111.447 315.021 111.041 313.312 110.499C312.167 110.145 311.083 109.645 310.062 108.999C309.042 108.332 308.146 107.437 307.375 106.312C306.625 105.187 306.25 103.634 306.25 101.655C306.25 99.6344 306.865 97.8949 308.094 96.4365C309.323 94.9782 310.865 93.9886 312.719 93.4678C314.573 92.9261 316.375 92.6553 318.125 92.6553C320.708 92.6553 322.781 92.9574 324.344 93.5615C325.927 94.1449 327.292 94.8428 328.438 95.6553C329.104 96.1344 329.198 96.6865 328.719 97.3115L327.312 99.1865C326.875 99.7907 326.198 99.7699 325.281 99.124C324.51 98.5824 323.417 98.0719 322 97.5928C320.583 97.1136 319.344 96.874 318.281 96.874C316.969 96.874 315.844 97.0199 314.906 97.3115C313.969 97.6032 313.208 98.1032 312.625 98.8115C312.042 99.5199 311.75 100.353 311.75 101.312C311.75 102.041 311.865 102.697 312.094 103.28C312.323 103.843 312.75 104.364 313.375 104.843C314 105.322 314.875 105.707 316 105.999C317.75 106.457 319.344 106.874 320.781 107.249C322.24 107.624 323.552 108.082 324.719 108.624C326.24 109.332 327.406 110.114 328.219 110.968C329.052 111.822 329.625 112.749 329.938 113.749C330.25 114.728 330.406 115.822 330.406 117.03C330.406 119.259 329.74 121.145 328.406 122.687C327.094 124.228 325.625 125.259 324 125.78C322.375 126.28 320.417 126.53 318.125 126.53C315.021 126.53 312.354 126.093 310.125 125.218C307.917 124.322 306.49 123.562 305.844 122.937ZM338.031 125.999C337.094 125.999 336.625 125.53 336.625 124.593V94.5928C336.625 93.6553 337.094 93.1865 338.031 93.1865H340.719C341.656 93.1865 342.125 93.6553 342.125 94.5928V124.593C342.125 125.53 341.656 125.999 340.719 125.999H338.031ZM338.031 87.249C337.094 87.249 336.625 86.7803 336.625 85.8428V83.1553C336.625 82.2178 337.094 81.749 338.031 81.749H340.719C341.656 81.749 342.125 82.2178 342.125 83.1553V85.8428C342.125 86.7803 341.656 87.249 340.719 87.249H338.031ZM349.219 109.593C349.219 105.114 350.302 101.176 352.469 97.7803C354.635 94.3636 357.802 92.6553 361.969 92.6553C364.365 92.6553 366.281 93.0511 367.719 93.8428C369.156 94.6344 370.448 95.7178 371.594 97.0928H371.656L371.844 94.5928C371.906 93.6553 372.312 93.1865 373.062 93.1865H375.688C376.625 93.1865 377.094 93.6553 377.094 94.5928V126.249C377.094 130.249 376.167 133.374 374.312 135.624C372.479 137.895 368.844 139.03 363.406 139.03C359.76 139.03 357.031 138.614 355.219 137.78C353.406 136.968 352.115 136.103 351.344 135.187C350.781 134.499 350.75 133.916 351.25 133.437L352.969 131.749C353.448 131.291 354.115 131.437 354.969 132.187C356.073 133.187 357.135 133.895 358.156 134.312C359.177 134.749 360.938 134.968 363.438 134.968C366.271 134.968 368.333 134.364 369.625 133.155C370.938 131.947 371.594 129.447 371.594 125.655V123.78C371.594 123.134 371.615 122.499 371.656 121.874H371.594C370.51 123.312 369.229 124.447 367.75 125.28C366.292 126.114 364.365 126.53 361.969 126.53C357.802 126.53 354.635 124.832 352.469 121.437C350.302 118.02 349.219 114.072 349.219 109.593ZM355.031 109.593C355.031 113.426 355.688 116.53 357 118.905C358.333 121.28 360.583 122.468 363.75 122.468C366 122.468 367.865 121.707 369.344 120.187C370.844 118.645 371.594 116.312 371.594 113.187V105.999C371.594 102.874 370.844 100.551 369.344 99.0303C367.865 97.4886 366 96.7178 363.75 96.7178C360.583 96.7178 358.333 97.9053 357 100.28C355.688 102.655 355.031 105.759 355.031 109.593ZM387.406 125.999C386.469 125.999 386 125.53 386 124.593V94.5928C386 93.6553 386.469 93.1865 387.406 93.1865H390.031C390.969 93.1865 391.438 93.6553 391.438 94.5928V97.0928H391.562C392.917 95.5928 394.375 94.4782 395.938 93.749C397.5 93.0199 399.448 92.6553 401.781 92.6553C405.573 92.6553 408.292 93.7282 409.938 95.874C411.604 97.999 412.438 100.916 412.438 104.624V124.593C412.438 125.53 411.969 125.999 411.031 125.999H408.344C407.406 125.999 406.938 125.53 406.938 124.593V106.124C406.938 102.041 406.26 99.4574 404.906 98.374C403.552 97.2699 401.833 96.7178 399.75 96.7178C397.042 96.7178 394.99 97.5303 393.594 99.1553C392.198 100.759 391.5 103.52 391.5 107.437V124.593C391.5 125.53 391.031 125.999 390.094 125.999H387.406ZM424.438 125.999C423.5 125.999 423.031 125.53 423.031 124.593V120.78C423.031 119.843 423.5 119.374 424.438 119.374H428.062C429 119.374 429.469 119.843 429.469 120.78V124.593C429.469 126.78 429.229 128.687 428.75 130.312C428.292 131.957 427.375 133.395 426 134.624C425.542 135.02 425.156 135.072 424.844 134.78L423.438 133.468C423.125 133.176 423.198 132.822 423.656 132.405C424.365 131.78 424.938 130.874 425.375 129.687C425.833 128.52 426.062 127.291 426.062 125.999H424.438ZM150.875 217.999C149.833 217.999 149.312 217.426 149.312 216.28V174.905C149.312 173.759 149.833 173.187 150.875 173.187H176.344C177.49 173.187 178.062 173.655 178.062 174.593V176.905C178.062 177.843 177.49 178.312 176.344 178.312H155.312V193.124H173.656C174.802 193.124 175.375 193.593 175.375 194.53V196.843C175.375 197.78 174.802 198.249 173.656 198.249H155.312V216.28C155.312 217.426 154.792 217.999 153.75 217.999H150.875ZM186.281 217.999C185.344 217.999 184.875 217.53 184.875 216.593V186.593C184.875 185.655 185.344 185.187 186.281 185.187H188.906C189.844 185.187 190.312 185.655 190.312 186.593V190.343H190.438C191.438 188.468 192.615 187.051 193.969 186.093C195.323 185.134 197.01 184.655 199.031 184.655C200.365 184.655 201.302 184.77 201.844 184.999C202.323 185.187 202.5 185.499 202.375 185.937L201.656 188.499C201.552 188.874 201.281 189.02 200.844 188.937C200.115 188.791 199.427 188.718 198.781 188.718C196.344 188.718 194.333 189.822 192.75 192.03C191.167 194.218 190.375 197.207 190.375 200.999V216.593C190.375 217.53 189.906 217.999 188.969 217.999H186.281ZM205.656 201.593C205.656 196.697 206.948 192.655 209.531 189.468C212.135 186.259 215.938 184.655 220.938 184.655C225.938 184.655 229.729 186.259 232.312 189.468C234.917 192.655 236.219 196.697 236.219 201.593C236.219 206.489 234.917 210.541 232.312 213.749C229.729 216.937 225.938 218.53 220.938 218.53C215.938 218.53 212.135 216.937 209.531 213.749C206.948 210.541 205.656 206.489 205.656 201.593ZM211.469 201.593C211.469 205.968 212.333 209.207 214.062 211.312C215.792 213.416 218.083 214.468 220.938 214.468C223.792 214.468 226.083 213.416 227.812 211.312C229.542 209.207 230.406 205.968 230.406 201.593C230.406 197.218 229.542 193.978 227.812 191.874C226.083 189.77 223.792 188.718 220.938 188.718C218.083 188.718 215.792 189.77 214.062 191.874C212.333 193.978 211.469 197.218 211.469 201.593ZM244.719 217.999C243.781 217.999 243.312 217.53 243.312 216.593V186.593C243.312 185.655 243.781 185.187 244.719 185.187H247.344C248.281 185.187 248.75 185.655 248.75 186.593V189.093H248.875C250.229 187.593 251.688 186.478 253.25 185.749C254.812 185.02 256.76 184.655 259.094 184.655C262.885 184.655 265.604 185.728 267.25 187.874C268.917 189.999 269.75 192.916 269.75 196.624V216.593C269.75 217.53 269.281 217.999 268.344 217.999H265.656C264.719 217.999 264.25 217.53 264.25 216.593V198.124C264.25 194.041 263.573 191.457 262.219 190.374C260.865 189.27 259.146 188.718 257.062 188.718C254.354 188.718 252.302 189.53 250.906 191.155C249.51 192.759 248.812 195.52 248.812 199.437V216.593C248.812 217.53 248.344 217.999 247.406 217.999H244.719ZM276.969 189.312C276.031 189.312 275.562 188.947 275.562 188.218V186.28C275.562 185.551 276.031 185.187 276.969 185.187H280.656V182.374C280.656 181.957 280.76 181.562 280.969 181.187L283.156 177.218C283.552 176.489 283.875 176.124 284.125 176.124H285.219C285.844 176.124 286.156 176.489 286.156 177.218V185.187H292.812C293.75 185.187 294.219 185.551 294.219 186.28V188.218C294.219 188.947 293.75 189.312 292.812 189.312H286.156V209.218C286.156 211.405 286.479 212.832 287.125 213.499C287.792 214.145 288.583 214.468 289.5 214.468C290.208 214.468 291.052 214.259 292.031 213.843C293.031 213.426 293.719 213.072 294.094 212.78C294.469 212.489 294.76 212.582 294.969 213.062L296 215.468C296.167 215.884 296.042 216.218 295.625 216.468C294.812 216.947 293.625 217.416 292.062 217.874C290.5 218.312 288.938 218.53 287.375 218.53C285.208 218.53 283.542 217.749 282.375 216.187C281.229 214.624 280.656 212.416 280.656 209.562V189.312H276.969ZM296.406 202.905C295.469 202.905 295 202.541 295 201.812V199.624C295 198.895 295.469 198.53 296.406 198.53H311.344C312.281 198.53 312.75 198.895 312.75 199.624V201.812C312.75 202.541 312.281 202.905 311.344 202.905H296.406ZM321.375 217.999C320.333 217.999 319.812 217.426 319.812 216.28V174.905C319.812 173.759 320.333 173.187 321.375 173.187H348.719C349.865 173.187 350.438 173.655 350.438 174.593V176.905C350.438 177.843 349.865 178.312 348.719 178.312H325.812V192.187H346.844C347.99 192.187 348.562 192.655 348.562 193.593V195.905C348.562 196.843 347.99 197.312 346.844 197.312H325.812V212.874H349.656C350.802 212.874 351.375 213.343 351.375 214.28V216.593C351.375 217.53 350.802 217.999 349.656 217.999H321.375ZM360.031 217.999C359.094 217.999 358.625 217.53 358.625 216.593V186.593C358.625 185.655 359.094 185.187 360.031 185.187H362.656C363.594 185.187 364.062 185.655 364.062 186.593V189.093H364.188C365.542 187.593 367 186.478 368.562 185.749C370.125 185.02 372.073 184.655 374.406 184.655C378.198 184.655 380.917 185.728 382.562 187.874C384.229 189.999 385.062 192.916 385.062 196.624V216.593C385.062 217.53 384.594 217.999 383.656 217.999H380.969C380.031 217.999 379.562 217.53 379.562 216.593V198.124C379.562 194.041 378.885 191.457 377.531 190.374C376.177 189.27 374.458 188.718 372.375 188.718C369.667 188.718 367.615 189.53 366.219 191.155C364.823 192.759 364.125 195.52 364.125 199.437V216.593C364.125 217.53 363.656 217.999 362.719 217.999H360.031ZM392.094 201.593C392.094 197.114 393.177 193.176 395.344 189.78C397.51 186.364 400.677 184.655 404.844 184.655C407.24 184.655 409.156 185.051 410.594 185.843C412.031 186.634 413.323 187.718 414.469 189.093H414.531C414.49 188.468 414.469 187.832 414.469 187.187V173.28C414.469 172.343 414.938 171.874 415.875 171.874H418.562C419.5 171.874 419.969 172.343 419.969 173.28V216.593C419.969 217.53 419.5 217.999 418.562 217.999H415.938C415.188 217.999 414.781 217.53 414.719 216.593L414.531 214.093H414.469C413.323 215.468 412.031 216.551 410.594 217.343C409.156 218.134 407.24 218.53 404.844 218.53C400.677 218.53 397.51 216.832 395.344 213.437C393.177 210.02 392.094 206.072 392.094 201.593ZM397.906 201.593C397.906 205.426 398.562 208.53 399.875 210.905C401.208 213.28 403.458 214.468 406.625 214.468C408.875 214.468 410.74 213.707 412.219 212.187C413.719 210.645 414.469 208.312 414.469 205.187V197.999C414.469 194.874 413.719 192.551 412.219 191.03C410.74 189.489 408.875 188.718 406.625 188.718C403.458 188.718 401.208 189.905 399.875 192.28C398.562 194.655 397.906 197.759 397.906 201.593ZM432.062 217.999C431.125 217.999 430.656 217.53 430.656 216.593V212.78C430.656 211.843 431.125 211.374 432.062 211.374H435.688C436.625 211.374 437.094 211.843 437.094 212.78V216.593C437.094 218.78 436.854 220.687 436.375 222.312C435.917 223.957 435 225.395 433.625 226.624C433.167 227.02 432.781 227.072 432.469 226.78L431.062 225.468C430.75 225.176 430.823 224.822 431.281 224.405C431.99 223.78 432.562 222.874 433 221.687C433.458 220.52 433.688 219.291 433.688 217.999H432.062ZM150.875 309.999C149.833 309.999 149.312 309.426 149.312 308.28V266.905C149.312 265.759 149.833 265.187 150.875 265.187H157.531C158.323 265.187 158.917 265.812 159.312 267.062L168.25 295.093C169.167 297.968 169.708 299.707 169.875 300.312C170.042 300.895 170.281 301.978 170.594 303.562H170.781C171.094 301.978 171.333 300.895 171.5 300.312C171.667 299.707 172.208 297.968 173.125 295.093L182.062 267.062C182.458 265.812 183.052 265.187 183.844 265.187H190.5C191.542 265.187 192.062 265.759 192.062 266.905V308.28C192.062 309.426 191.542 309.999 190.5 309.999H187.625C186.583 309.999 186.062 309.426 186.062 308.28V275.499C186.062 274.666 186.083 273.832 186.125 272.999H186L174.469 308.093C174.052 309.364 173.365 309.999 172.406 309.999H168.969C168.01 309.999 167.323 309.364 166.906 308.093L155.375 272.999H155.25C155.292 273.832 155.312 274.666 155.312 275.499V308.28C155.312 309.426 154.792 309.999 153.75 309.999H150.875ZM200.031 293.593C200.031 288.697 201.323 284.655 203.906 281.468C206.51 278.259 210.312 276.655 215.312 276.655C220.312 276.655 224.104 278.259 226.688 281.468C229.292 284.655 230.594 288.697 230.594 293.593C230.594 298.489 229.292 302.541 226.688 305.749C224.104 308.937 220.312 310.53 215.312 310.53C210.312 310.53 206.51 308.937 203.906 305.749C201.323 302.541 200.031 298.489 200.031 293.593ZM205.844 293.593C205.844 297.968 206.708 301.207 208.438 303.312C210.167 305.416 212.458 306.468 215.312 306.468C218.167 306.468 220.458 305.416 222.188 303.312C223.917 301.207 224.781 297.968 224.781 293.593C224.781 289.218 223.917 285.978 222.188 283.874C220.458 281.77 218.167 280.718 215.312 280.718C212.458 280.718 210.167 281.77 208.438 283.874C206.708 285.978 205.844 289.218 205.844 293.593ZM236.094 281.312C235.156 281.312 234.688 280.947 234.688 280.218V278.28C234.688 277.551 235.156 277.187 236.094 277.187H239.781V274.374C239.781 273.957 239.885 273.562 240.094 273.187L242.281 269.218C242.677 268.489 243 268.124 243.25 268.124H244.344C244.969 268.124 245.281 268.489 245.281 269.218V277.187H251.938C252.875 277.187 253.344 277.551 253.344 278.28V280.218C253.344 280.947 252.875 281.312 251.938 281.312H245.281V301.218C245.281 303.405 245.604 304.832 246.25 305.499C246.917 306.145 247.708 306.468 248.625 306.468C249.333 306.468 250.177 306.259 251.156 305.843C252.156 305.426 252.844 305.072 253.219 304.78C253.594 304.489 253.885 304.582 254.094 305.062L255.125 307.468C255.292 307.884 255.167 308.218 254.75 308.468C253.938 308.947 252.75 309.416 251.188 309.874C249.625 310.312 248.062 310.53 246.5 310.53C244.333 310.53 242.667 309.749 241.5 308.187C240.354 306.624 239.781 304.416 239.781 301.562V281.312H236.094ZM262.781 309.999C261.844 309.999 261.375 309.53 261.375 308.593V278.593C261.375 277.655 261.844 277.187 262.781 277.187H265.469C266.406 277.187 266.875 277.655 266.875 278.593V308.593C266.875 309.53 266.406 309.999 265.469 309.999H262.781ZM262.781 271.249C261.844 271.249 261.375 270.78 261.375 269.843V267.155C261.375 266.218 261.844 265.749 262.781 265.749H265.469C266.406 265.749 266.875 266.218 266.875 267.155V269.843C266.875 270.78 266.406 271.249 265.469 271.249H262.781ZM273.969 293.593C273.969 288.697 275.26 284.655 277.844 281.468C280.448 278.259 284.25 276.655 289.25 276.655C294.25 276.655 298.042 278.259 300.625 281.468C303.229 284.655 304.531 288.697 304.531 293.593C304.531 298.489 303.229 302.541 300.625 305.749C298.042 308.937 294.25 310.53 289.25 310.53C284.25 310.53 280.448 308.937 277.844 305.749C275.26 302.541 273.969 298.489 273.969 293.593ZM279.781 293.593C279.781 297.968 280.646 301.207 282.375 303.312C284.104 305.416 286.396 306.468 289.25 306.468C292.104 306.468 294.396 305.416 296.125 303.312C297.854 301.207 298.719 297.968 298.719 293.593C298.719 289.218 297.854 285.978 296.125 283.874C294.396 281.77 292.104 280.718 289.25 280.718C286.396 280.718 284.104 281.77 282.375 283.874C280.646 285.978 279.781 289.218 279.781 293.593ZM313.031 309.999C312.094 309.999 311.625 309.53 311.625 308.593V278.593C311.625 277.655 312.094 277.187 313.031 277.187H315.656C316.594 277.187 317.062 277.655 317.062 278.593V281.093H317.188C318.542 279.593 320 278.478 321.562 277.749C323.125 277.02 325.073 276.655 327.406 276.655C331.198 276.655 333.917 277.728 335.562 279.874C337.229 281.999 338.062 284.916 338.062 288.624V308.593C338.062 309.53 337.594 309.999 336.656 309.999H333.969C333.031 309.999 332.562 309.53 332.562 308.593V290.124C332.562 286.041 331.885 283.457 330.531 282.374C329.177 281.27 327.458 280.718 325.375 280.718C322.667 280.718 320.615 281.53 319.219 283.155C317.823 284.759 317.125 287.52 317.125 291.437V308.593C317.125 309.53 316.656 309.999 315.719 309.999H313.031ZM370.625 309.999C369.583 309.999 369.062 309.426 369.062 308.28V266.905C369.062 265.759 369.583 265.187 370.625 265.187H382.156C390.99 265.187 397.125 267.145 400.562 271.062C404.021 274.957 405.75 280.447 405.75 287.53C405.75 294.614 404.021 300.134 400.562 304.093C397.125 308.03 390.99 309.999 382.156 309.999H370.625ZM375.062 304.874H381.875C388.75 304.874 393.375 303.416 395.75 300.499C398.146 297.582 399.344 293.259 399.344 287.53C399.344 281.801 398.146 277.489 395.75 274.593C393.375 271.697 388.75 270.249 381.875 270.249H375.062V304.874ZM411.281 293.593C411.281 288.426 412.573 284.312 415.156 281.249C417.74 278.187 421.438 276.655 426.25 276.655C430.25 276.655 433.562 278.062 436.188 280.874C438.833 283.666 440.156 288.134 440.156 294.28C440.156 295.218 439.729 295.687 438.875 295.687H417.094C417.448 299.707 418.531 302.509 420.344 304.093C422.156 305.655 424.208 306.437 426.5 306.437C428.917 306.437 430.771 306.03 432.062 305.218C433.354 304.405 434.302 303.603 434.906 302.812C435.573 301.937 436.219 301.77 436.844 302.312L438.688 303.905C439.167 304.322 439.167 304.895 438.688 305.624C438.292 306.228 437.156 307.197 435.281 308.53C433.427 309.864 430.5 310.53 426.5 310.53C421.292 310.53 417.448 308.999 414.969 305.937C412.51 302.874 411.281 298.759 411.281 293.593ZM416.969 291.624H434.625C434.542 288.707 433.792 286.155 432.375 283.968C430.958 281.759 428.875 280.655 426.125 280.655C423.708 280.655 421.656 281.468 419.969 283.093C418.281 284.697 417.281 287.541 416.969 291.624ZM446.094 306.937C445.448 306.332 445.312 305.77 445.688 305.249L447.094 303.28C447.552 302.655 448.229 302.687 449.125 303.374C450.354 304.312 451.719 305.062 453.219 305.624C454.74 306.187 456.469 306.468 458.406 306.468C459.552 306.468 460.573 306.332 461.469 306.062C462.365 305.77 463.146 305.239 463.812 304.468C464.5 303.697 464.844 302.666 464.844 301.374C464.844 300.624 464.677 299.916 464.344 299.249C464.031 298.582 463.531 298.051 462.844 297.655C462.177 297.239 461.521 296.916 460.875 296.687C459.812 296.291 458.75 295.968 457.688 295.718C456.646 295.447 455.271 295.041 453.562 294.499C452.417 294.145 451.333 293.645 450.312 292.999C449.292 292.332 448.396 291.437 447.625 290.312C446.875 289.187 446.5 287.634 446.5 285.655C446.5 283.634 447.115 281.895 448.344 280.437C449.573 278.978 451.115 277.989 452.969 277.468C454.823 276.926 456.625 276.655 458.375 276.655C460.958 276.655 463.031 276.957 464.594 277.562C466.177 278.145 467.542 278.843 468.688 279.655C469.354 280.134 469.448 280.687 468.969 281.312L467.562 283.187C467.125 283.791 466.448 283.77 465.531 283.124C464.76 282.582 463.667 282.072 462.25 281.593C460.833 281.114 459.594 280.874 458.531 280.874C457.219 280.874 456.094 281.02 455.156 281.312C454.219 281.603 453.458 282.103 452.875 282.812C452.292 283.52 452 284.353 452 285.312C452 286.041 452.115 286.697 452.344 287.28C452.573 287.843 453 288.364 453.625 288.843C454.25 289.322 455.125 289.707 456.25 289.999C458 290.457 459.594 290.874 461.031 291.249C462.49 291.624 463.802 292.082 464.969 292.624C466.49 293.332 467.656 294.114 468.469 294.968C469.302 295.822 469.875 296.749 470.188 297.749C470.5 298.728 470.656 299.822 470.656 301.03C470.656 303.259 469.99 305.145 468.656 306.687C467.344 308.228 465.875 309.259 464.25 309.78C462.625 310.28 460.667 310.53 458.375 310.53C455.271 310.53 452.604 310.093 450.375 309.218C448.167 308.322 446.74 307.562 446.094 306.937ZM478.281 309.999C477.344 309.999 476.875 309.53 476.875 308.593V278.593C476.875 277.655 477.344 277.187 478.281 277.187H480.969C481.906 277.187 482.375 277.655 482.375 278.593V308.593C482.375 309.53 481.906 309.999 480.969 309.999H478.281ZM478.281 271.249C477.344 271.249 476.875 270.78 476.875 269.843V267.155C476.875 266.218 477.344 265.749 478.281 265.749H480.969C481.906 265.749 482.375 266.218 482.375 267.155V269.843C482.375 270.78 481.906 271.249 480.969 271.249H478.281ZM489.469 293.593C489.469 289.114 490.552 285.176 492.719 281.78C494.885 278.364 498.052 276.655 502.219 276.655C504.615 276.655 506.531 277.051 507.969 277.843C509.406 278.634 510.698 279.718 511.844 281.093H511.906L512.094 278.593C512.156 277.655 512.562 277.187 513.312 277.187H515.938C516.875 277.187 517.344 277.655 517.344 278.593V310.249C517.344 314.249 516.417 317.374 514.562 319.624C512.729 321.895 509.094 323.03 503.656 323.03C500.01 323.03 497.281 322.614 495.469 321.78C493.656 320.968 492.365 320.103 491.594 319.187C491.031 318.499 491 317.916 491.5 317.437L493.219 315.749C493.698 315.291 494.365 315.437 495.219 316.187C496.323 317.187 497.385 317.895 498.406 318.312C499.427 318.749 501.188 318.968 503.688 318.968C506.521 318.968 508.583 318.364 509.875 317.155C511.188 315.947 511.844 313.447 511.844 309.655V307.78C511.844 307.134 511.865 306.499 511.906 305.874H511.844C510.76 307.312 509.479 308.447 508 309.28C506.542 310.114 504.615 310.53 502.219 310.53C498.052 310.53 494.885 308.832 492.719 305.437C490.552 302.02 489.469 298.072 489.469 293.593ZM495.281 293.593C495.281 297.426 495.938 300.53 497.25 302.905C498.583 305.28 500.833 306.468 504 306.468C506.25 306.468 508.115 305.707 509.594 304.187C511.094 302.645 511.844 300.312 511.844 297.187V289.999C511.844 286.874 511.094 284.551 509.594 283.03C508.115 281.489 506.25 280.718 504 280.718C500.833 280.718 498.583 281.905 497.25 284.28C495.938 286.655 495.281 289.759 495.281 293.593ZM527.656 309.999C526.719 309.999 526.25 309.53 526.25 308.593V278.593C526.25 277.655 526.719 277.187 527.656 277.187H530.281C531.219 277.187 531.688 277.655 531.688 278.593V281.093H531.812C533.167 279.593 534.625 278.478 536.188 277.749C537.75 277.02 539.698 276.655 542.031 276.655C545.823 276.655 548.542 277.728 550.188 279.874C551.854 281.999 552.688 284.916 552.688 288.624V308.593C552.688 309.53 552.219 309.999 551.281 309.999H548.594C547.656 309.999 547.188 309.53 547.188 308.593V290.124C547.188 286.041 546.51 283.457 545.156 282.374C543.802 281.27 542.083 280.718 540 280.718C537.292 280.718 535.24 281.53 533.844 283.155C532.448 284.759 531.75 287.52 531.75 291.437V308.593C531.75 309.53 531.281 309.999 530.344 309.999H527.656ZM564.688 309.999C563.75 309.999 563.281 309.53 563.281 308.593V304.78C563.281 303.843 563.75 303.374 564.688 303.374H568.188C569.125 303.374 569.594 303.843 569.594 304.78V308.593C569.594 309.53 569.125 309.999 568.188 309.999H564.688Z" fill="white"/>
</g>
</svg>
